<?xml version="1.0" standalone="no"?>
<!DOCTYPE svg PUBLIC "-//W3C//DTD SVG 20010904//EN"
 "http://www.w3.org/TR/2001/REC-SVG-20010904/DTD/svg10.dtd">
<svg version="1.0" xmlns="http://www.w3.org/2000/svg"
 width="774.000000pt" height="291.000000pt" viewBox="0 0 774.000000 291.000000"
 preserveAspectRatio="xMidYMid meet">
<metadata>
Created by potrace 1.16, written by Peter Selinger 2001-2019
</metadata>
<g transform="translate(0.000000,291.000000) scale(0.100000,-0.100000)"
fill="#000000" stroke="none">
<path d="M850 2336 l0 -43 56 -7 c62 -7 99 -23 128 -55 18 -20 29 -21 221 -21
194 0 203 1 221 21 27 31 71 47 148 55 l66 7 0 43 0 44 -420 0 -420 0 0 -44z"/>
<path d="M2090 2336 l0 -43 66 -7 c77 -8 121 -24 148 -55 18 -20 27 -21 222
-21 l202 0 29 29 c28 28 100 51 158 51 23 0 25 4 25 45 l0 45 -425 0 -425 0 0
-44z"/>
<path d="M3180 2336 l0 -43 58 -7 c59 -7 118 -35 128 -61 9 -22 378 -22 400 0
22 21 379 21 492 0 59 -11 134 -15 284 -13 l203 3 -95 47 c-108 52 -196 80
-324 103 -72 12 -186 15 -617 15 l-529 0 0 -44z"/>
<path d="M5400 2335 c0 -41 2 -45 25 -45 58 0 130 -23 158 -51 l29 -29 200 0
200 0 33 29 c33 29 105 51 165 51 29 0 30 2 30 45 l0 45 -420 0 -420 0 0 -45z"/>
<path d="M1107 2080 c-146 -25 -268 -149 -297 -301 -13 -68 -13 -195 1 -261 6
-29 39 -113 75 -186 35 -73 96 -208 135 -300 39 -92 80 -179 90 -194 23 -32
78 -52 119 -43 66 14 89 76 140 360 20 113 41 178 61 191 18 11 47 -8 62 -39
9 -18 27 -97 41 -177 46 -259 71 -321 137 -335 46 -10 97 12 123 53 12 21 49
100 81 177 31 77 88 203 125 280 87 180 91 191 97 310 12 219 -61 362 -221
435 -82 38 -151 44 -256 24 -144 -27 -188 -28 -304 -5 -115 22 -134 23 -209
11z m223 -105 c86 -20 198 -15 295 11 80 22 172 13 230 -21 106 -61 155 -161
155 -311 0 -102 -20 -179 -74 -279 -24 -44 -80 -168 -126 -275 -45 -107 -89
-202 -96 -210 -12 -12 -16 -12 -28 0 -15 15 -55 184 -76 320 -22 140 -72 217
-146 227 -30 4 -47 -1 -74 -19 -56 -38 -79 -92 -110 -261 -29 -158 -54 -265
-65 -275 -17 -17 -46 31 -115 194 -42 99 -102 231 -133 294 -68 137 -81 193
-75 319 7 139 39 201 140 269 69 46 152 50 298 17z"/>
<path d="M1170 1901 c-90 -29 -169 -110 -194 -199 -28 -103 -15 -177 54 -300
35 -63 49 -75 74 -66 29 11 25 36 -16 114 -85 163 -54 306 79 367 60 28 89 28
230 2 112 -20 223 3 223 46 0 31 -17 37 -78 28 -35 -6 -83 -6 -114 -1 -80 13
-230 18 -258 9z"/>
<path d="M2227 2083 c-11 -10 -8 -1281 2 -1287 5 -3 12 1 15 10 9 24 7 1257
-2 1272 -5 7 -11 9 -15 5z"/>
<path d="M5712 1861 c-76 -192 -86 -210 -113 -220 -16 -5 -29 -12 -29 -15 0
-4 36 -6 81 -6 51 0 78 4 74 10 -3 6 -15 10 -25 10 -29 0 -34 18 -15 66 l17
44 88 0 88 0 11 -31 c18 -53 14 -76 -16 -87 -22 -8 -3 -11 85 -11 73 -1 111 3
107 9 -3 6 -15 10 -25 10 -29 0 -47 34 -131 239 -58 144 -80 187 -95 189 -16
2 -31 -29 -102 -207z"/>
<path d="M2380 2052 c0 -4 10 -12 23 -17 21 -10 22 -14 25 -193 l2 -182 -32
-20 -33 -20 105 1 c87 0 101 2 80 12 -37 17 -40 25 -40 115 l0 82 110 0 110 0
0 -90 0 -90 -32 -14 c-31 -14 -28 -14 72 -15 81 0 100 2 85 11 -42 23 -45 35
-45 208 0 173 3 185 45 208 16 9 -3 11 -85 12 -62 0 -100 -4 -95 -9 6 -5 19
-11 30 -13 18 -3 20 -12 23 -91 l3 -87 -111 0 -110 0 0 80 c0 80 0 80 33 100
l32 20 -97 0 c-54 0 -98 -3 -98 -8z"/>
<path d="M2930 2050 c0 -5 8 -10 18 -10 33 0 42 -43 41 -203 0 -84 -4 -160 -8
-171 -4 -10 -20 -24 -37 -31 -26 -12 -21 -13 61 -13 83 0 88 1 60 13 -20 8
-32 23 -36 41 -11 48 -10 292 1 299 5 3 22 -14 37 -38 15 -24 73 -107 128
-185 98 -140 100 -142 137 -142 l38 0 0 205 0 205 33 20 32 20 -82 0 c-46 0
-83 -2 -83 -5 0 -3 11 -10 24 -15 32 -12 38 -43 34 -200 l-3 -125 -84 120
c-47 66 -101 144 -120 172 l-36 53 -77 0 c-46 0 -78 -4 -78 -10z"/>
<path d="M3663 2039 l27 -21 0 -176 c0 -98 -4 -182 -8 -187 -4 -6 -18 -16 -32
-22 -20 -9 5 -12 130 -12 143 -1 159 1 205 23 88 42 125 97 125 187 0 88 -44
159 -125 202 -35 19 -59 22 -195 25 l-155 3 28 -22z m260 -20 c67 -35 97 -92
97 -186 0 -73 -16 -117 -54 -153 -22 -20 -40 -25 -95 -28 -99 -6 -101 -2 -101
210 l0 168 66 0 c36 0 75 -5 87 -11z"/>
<path d="M4170 2051 c0 -5 10 -11 23 -13 22 -3 22 -4 25 -195 l2 -193 -32 -14
c-30 -13 -16 -14 163 -15 l197 -1 6 31 c8 44 8 89 -2 89 -4 0 -13 -15 -20 -32
-6 -18 -21 -39 -32 -46 -31 -19 -100 -25 -146 -13 -49 13 -54 25 -54 124 l0
67 40 0 c30 0 47 -7 65 -25 14 -13 25 -29 25 -35 0 -6 5 -8 10 -5 12 8 13 142
1 149 -5 3 -12 -6 -15 -19 -7 -29 -40 -45 -92 -45 l-35 0 3 88 3 87 81 0 c90
-1 107 -9 129 -59 13 -31 13 -30 14 27 l1 57 -180 0 c-104 0 -180 -4 -180 -9z"/>
<path d="M4613 2054 c4 -4 17 -12 29 -18 30 -15 37 -58 36 -211 -1 -153 -5
-174 -43 -190 -28 -13 -25 -13 53 -14 53 -1 81 3 77 9 -3 6 -13 10 -20 10 -28
0 -35 40 -35 192 l1 153 25 -30 c25 -28 82 -108 198 -275 44 -63 52 -70 83
-70 l33 0 0 188 c0 103 3 196 6 208 3 12 20 28 37 37 32 15 31 16 -58 16 -85
-1 -88 -1 -59 -14 28 -12 32 -20 37 -67 4 -29 7 -97 7 -150 0 -81 -3 -98 -15
-98 -8 0 -15 3 -15 8 0 4 -49 77 -108 162 l-108 155 -84 3 c-46 2 -81 0 -77
-4z"/>
<path d="M5150 1998 c0 -45 3 -59 10 -48 5 8 10 22 10 31 0 39 83 71 144 55
l26 -6 0 -179 c0 -191 -5 -211 -50 -211 -10 0 -22 -4 -25 -10 -4 -6 37 -10
115 -10 78 0 119 4 115 10 -3 6 -16 10 -29 10 -43 0 -46 14 -46 207 l0 183 26
6 c68 17 144 -18 144 -67 0 -10 5 -21 10 -24 6 -4 10 17 10 54 l0 61 -230 0
-230 0 0 -62z"/>
<path d="M6085 2050 c3 -5 13 -10 20 -10 28 0 35 -40 35 -202 0 -170 -3 -183
-45 -206 -15 -9 29 -11 177 -12 l197 0 6 33 c4 19 5 47 3 63 l-4 29 -16 -37
c-24 -54 -81 -76 -164 -63 -73 11 -74 14 -74 209 l0 172 33 17 c32 16 31 16
-71 16 -66 1 -101 -3 -97 -9z"/>
<path d="M2926 1373 c-77 -196 -97 -233 -122 -233 -7 0 -16 -4 -19 -10 -4 -6
24 -10 76 -10 50 0 79 4 74 9 -6 5 -19 11 -30 13 -25 5 -25 56 -1 93 15 23 22
25 97 25 l80 0 15 -35 c7 -19 14 -46 14 -60 0 -20 -5 -25 -25 -25 -14 0 -25
-4 -25 -10 0 -6 42 -10 105 -10 58 0 105 3 105 8 0 4 -15 14 -33 22 -28 13
-38 31 -95 170 -35 85 -71 175 -80 200 -12 30 -24 46 -37 48 -17 2 -31 -25
-99 -195z m113 2 c17 -44 31 -83 31 -87 0 -5 -31 -8 -70 -8 -46 0 -70 4 -70
11 0 25 64 179 71 172 4 -5 21 -44 38 -88z"/>
<path d="M3920 1555 c-53 -17 -116 -74 -141 -130 -58 -127 25 -272 175 -306
100 -22 216 25 267 108 19 31 23 52 24 113 0 65 -4 81 -27 116 -62 96 -181
135 -298 99z m150 -34 c69 -36 105 -149 80 -251 -23 -97 -110 -148 -195 -116
-23 9 -51 29 -62 44 -31 42 -46 126 -33 190 13 69 34 105 79 131 45 26 86 26
131 2z"/>
<path d="M4959 1543 c-46 -124 -143 -362 -155 -380 -14 -23 -46 -29 -78 -17
-8 3 -49 45 -91 94 l-75 88 33 12 c76 24 110 109 66 164 -36 46 -74 56 -219
56 -73 0 -130 -4 -130 -9 0 -5 10 -11 23 -13 22 -3 22 -5 25 -178 1 -96 0
-184 -2 -195 -3 -12 -18 -26 -33 -32 -23 -9 -7 -11 87 -12 78 0 110 2 100 9
-8 5 -23 10 -32 10 -27 0 -38 32 -38 110 0 95 11 92 114 -32 l81 -97 133 -1
c72 0 132 2 132 5 0 3 -11 10 -25 15 -29 11 -32 34 -11 85 l15 35 85 0 84 0
17 -45 c20 -50 15 -75 -15 -75 -11 0 -20 -4 -20 -10 0 -6 42 -10 105 -10 63 0
105 4 105 10 0 6 -8 10 -17 10 -30 0 -52 31 -98 144 -26 61 -63 150 -83 199
-39 94 -63 112 -83 60z m-420 -14 c38 -13 51 -35 51 -86 0 -59 -20 -76 -102
-88 l-48 -7 0 89 c0 49 3 93 7 96 10 11 56 8 92 -4z m467 -154 c17 -46 29 -87
26 -90 -8 -8 -130 -6 -135 3 -7 10 64 184 71 177 4 -3 20 -44 38 -90z"/>
<path d="M5860 1555 c-182 -59 -218 -300 -60 -400 137 -86 326 -29 375 113 19
57 19 87 0 144 -41 117 -188 185 -315 143z m133 -26 c68 -35 98 -94 99 -189 1
-108 -36 -170 -114 -190 -108 -30 -188 53 -188 196 0 128 112 230 203 183z"/>
<path d="M2380 1550 c0 -5 9 -10 19 -10 10 0 22 -7 25 -16 3 -9 6 -93 6 -188
0 -178 -4 -196 -42 -196 -10 0 -18 -4 -18 -10 0 -6 72 -10 195 -10 l195 0 6
23 c3 13 4 41 2 63 l-3 39 -17 -37 c-24 -54 -81 -76 -164 -63 -73 11 -74 13
-74 211 l0 174 33 14 c31 14 28 14 -65 15 -59 1 -98 -3 -98 -9z"/>
<path d="M3300 1550 c0 -5 7 -10 15 -10 28 0 35 -39 35 -194 0 -166 -8 -206
-39 -206 -11 0 -23 -4 -26 -10 -9 -14 269 -13 319 1 53 15 96 59 96 99 0 65
-38 107 -110 120 l-35 6 36 16 c90 39 92 130 5 172 -26 12 -65 16 -165 16 -81
0 -131 -4 -131 -10z m248 -36 c17 -11 22 -25 22 -57 0 -23 -4 -47 -8 -53 -13
-21 -51 -34 -94 -34 l-43 0 3 80 4 80 47 0 c26 0 56 -7 69 -16z m21 -196 c46
-28 55 -105 16 -143 -19 -20 -34 -25 -74 -25 -77 0 -83 11 -83 150 0 17 1 33
1 36 2 11 119 -5 140 -18z"/>
<path d="M5201 1498 c1 -35 4 -52 6 -38 2 14 12 36 23 50 17 22 26 25 87 25
l68 0 2 -170 c3 -189 -3 -218 -50 -223 -15 -2 -27 -8 -27 -13 0 -5 50 -9 115
-9 65 0 115 4 115 9 0 5 -12 11 -27 13 -46 5 -53 35 -53 219 0 185 -3 179 70
179 60 0 89 -18 102 -62 16 -53 31 -33 22 31 l-7 51 -223 0 -224 0 1 -62z"/>
<path d="M6243 1554 c4 -4 17 -12 29 -18 22 -11 23 -16 26 -176 1 -91 0 -175
-3 -187 -3 -12 -18 -29 -33 -37 -25 -14 -19 -15 88 -15 93 1 109 3 85 11 -52
18 -55 25 -55 109 0 63 3 79 15 79 8 0 51 -45 96 -100 l82 -100 68 0 c38 0 69
2 69 6 0 3 -14 10 -31 16 -18 6 -60 45 -104 97 l-75 86 45 22 c52 27 66 49 67
104 0 46 -21 75 -69 95 -33 14 -313 21 -300 8z m228 -24 c43 -12 62 -43 57
-95 -4 -47 -34 -71 -100 -81 l-48 -6 0 89 c0 49 3 93 7 96 9 10 42 8 84 -3z"/>
<path d="M6665 1550 c3 -5 13 -10 20 -10 16 0 36 -30 113 -166 44 -78 52 -99
52 -143 0 -62 -13 -91 -40 -91 -11 0 -20 -4 -20 -10 0 -6 40 -10 101 -10 64 0
98 4 94 10 -3 6 -13 10 -20 10 -23 0 -35 34 -35 96 0 52 5 66 71 176 47 80 78
122 95 128 40 15 28 20 -48 19 -60 0 -69 -2 -50 -11 26 -13 28 -28 6 -71 -30
-58 -87 -147 -94 -147 -10 0 -100 174 -100 193 0 7 10 19 23 25 17 8 2 11 -76
11 -63 1 -96 -3 -92 -9z"/>
<path d="M2376 938 c33 -105 53 -143 76 -146 21 -3 27 4 47 63 13 37 27 63 30
58 4 -4 15 -34 26 -66 16 -52 21 -58 43 -55 20 2 30 16 53 73 34 84 35 95 10
95 -14 0 -23 -11 -31 -37 -6 -21 -17 -51 -23 -67 -11 -29 -11 -29 -32 35 -20
59 -24 64 -50 64 -27 0 -31 -5 -47 -59 -10 -33 -20 -61 -22 -63 -2 -3 -14 25
-26 61 -17 52 -26 66 -41 66 -17 0 -19 -4 -13 -22z"/>
<path d="M4122 948 c-13 -13 -15 -37 -6 -62 5 -12 20 -16 58 -16 55 0 99 -21
81 -39 -5 -5 -39 -11 -75 -13 -85 -4 -84 -22 2 -26 88 -4 110 8 106 56 l-3 37
-65 5 c-57 4 -65 8 -65 25 0 18 6 20 63 19 46 -1 62 3 62 13 0 17 -140 19
-158 1z"/>
<path d="M2907 913 c-4 -3 -7 -30 -7 -59 0 -61 10 -68 93 -62 65 4 59 22 -8
26 -74 4 -70 22 5 22 57 0 60 1 60 24 0 50 -8 56 -74 56 -35 0 -66 -3 -69 -7z"/>
<path d="M3237 913 c-4 -3 -7 -30 -7 -59 0 -61 10 -68 93 -62 65 4 59 22 -8
26 -74 4 -70 22 5 22 57 0 60 1 60 24 0 50 -8 56 -74 56 -35 0 -66 -3 -69 -7z"/>
<path d="M3666 898 c-20 -77 2 -108 77 -108 72 0 79 7 75 71 l-3 54 -71 3
c-67 3 -72 1 -78 -20z"/>
<path d="M4330 855 c0 -58 2 -66 18 -63 13 2 18 15 20 56 3 51 4 53 30 50 25
-3 27 -7 30 -55 2 -37 7 -53 17 -53 10 0 15 16 17 53 3 50 4 52 33 52 29 0 30
-2 33 -52 2 -39 7 -53 18 -53 12 0 14 12 12 63 l-3 62 -112 3 -113 3 0 -66z"/>
<path d="M4757 913 c-4 -3 -7 -30 -7 -59 0 -61 10 -68 93 -62 65 4 59 22 -8
26 -74 4 -70 22 5 22 57 0 60 1 60 24 0 50 -8 56 -74 56 -35 0 -66 -3 -69 -7z"/>
<path d="M1018 640 c-27 -27 -105 -50 -170 -50 -27 0 -28 -2 -28 -45 l0 -45
445 0 445 0 0 45 c0 42 -2 45 -27 45 -71 0 -156 23 -188 51 l-33 29 -208 -1
-209 -2 -27 -27z"/>
<path d="M2309 653 c-23 -28 -92 -52 -167 -59 l-72 -7 0 -43 0 -44 445 0 445
0 0 44 0 43 -62 7 c-73 9 -116 25 -142 55 -18 20 -27 21 -226 21 -181 0 -209
-2 -221 -17z"/>
<path d="M3346 641 c-28 -29 -101 -51 -173 -51 -33 0 -33 -1 -33 -46 l0 -45
618 3 617 4 105 28 c58 15 152 51 210 79 l105 52 -210 3 c-154 2 -234 -2 -299
-13 -112 -19 -221 -19 -311 0 -52 11 -139 15 -336 15 l-265 0 -28 -29z"/>
<path d="M5584 649 c-29 -32 -50 -40 -133 -53 l-76 -12 -3 -42 -3 -42 844 0
844 0 7 53 c3 28 6 67 6 85 l0 32 -147 0 c-103 0 -163 -5 -198 -15 -115 -35
-467 -35 -567 0 -34 11 -98 15 -299 15 -247 0 -257 -1 -275 -21z"/>
</g>
</svg>
